<svg viewBox="0 0 260 64" xmlns="http://www.w3.org/2000/svg"><g fill="none" fill-rule="evenodd"><g fill="#F69320"><g transform="translate(3 34)"><circle transform="rotate(-21.259 1.586 6.408)" cx="1.586" cy="6.408" r=".7"/><circle transform="rotate(-21.174 5.1 5.093)" cx="5.1" cy="5.093" r="1"/><circle transform="rotate(-21.266 8.49 3.72)" cx="8.489" cy="3.719" r="1.3"/><ellipse transform="rotate(-21.328 12.005 2.405)" cx="12.005" cy="2.405" rx="1.6" ry="1.5"/></g><g transform="translate(1 28)"><circle transform="rotate(-.424 1.7 2.6)" cx="1.7" cy="2.601" r=".7"/><circle transform="rotate(-.541 5.4 2.601)" cx="5.401" cy="2.601" r="1"/><circle transform="rotate(-.453 9.1 2.501)" cx="9.1" cy="2.501" r="1.3"/><circle transform="rotate(-.541 12.9 2.5)" cx="12.901" cy="2.501" r="1.6"/></g><g transform="translate(3 19)"><circle transform="rotate(-69.689 1.384 1.701)" cx="1.384" cy="1.701" r=".7"/><circle transform="rotate(-69.697 4.892 2.988)" cx="4.892" cy="2.988" r="1"/><circle transform="rotate(-69.818 8.4 4.273)" cx="8.399" cy="4.273" r="1.3"/><circle transform="rotate(-69.744 11.904 5.558)" cx="11.904" cy="5.558" r="1.6"/></g><g transform="translate(8 11)"><circle transform="rotate(-48.905 1.518 1.078)" cx="1.518" cy="1.078" r=".7"/><circle transform="rotate(-48.99 4.29 3.499)" cx="4.29" cy="3.499" r="1"/><circle transform="rotate(-49.002 7.136 5.987)" cx="7.136" cy="5.987" r="1.3"/><ellipse transform="rotate(-48.982 9.908 8.41)" cx="9.908" cy="8.411" rx="1.6" ry="1.5"/></g><g transform="translate(16 4)"><circle transform="rotate(-28.198 1.304 1.803)" cx="1.304" cy="1.803" r=".7"/><circle transform="rotate(-28.203 3.11 5.083)" cx="3.111" cy="5.083" r="1"/><circle transform="rotate(-28.244 4.78 8.321)" cx="4.779" cy="8.321" r="1.3"/><circle transform="rotate(-28.215 6.586 11.602)" cx="6.586" cy="11.602" r="1.6"/></g><g transform="translate(26 1)"><circle transform="rotate(-7.522 .801 1.706)" cx=".801" cy="1.706" r=".7"/><circle transform="rotate(-7.452 1.304 5.405)" cx="1.304" cy="5.405" r="1"/><circle transform="rotate(-7.505 1.803 9.1)" cx="1.803" cy="9.101" r="1.3"/><ellipse transform="rotate(-7.475 2.305 12.8)" cx="2.305" cy="12.799" rx="1.6" ry="1.5"/></g><g transform="translate(32 2)"><circle transform="rotate(-76.745 4.897 1.146)" cx="4.897" cy="1.146" r=".7"/><circle transform="rotate(-76.738 4.01 4.812)" cx="4.01" cy="4.812" r="1"/><circle transform="rotate(-76.697 3.146 8.377)" cx="3.146" cy="8.377" r="1.3"/><ellipse transform="rotate(-76.756 2.261 12.045)" cx="2.261" cy="12.045" rx="1.6" ry="1.5"/></g><g transform="translate(37 6)"><circle transform="rotate(-55.908 9.103 1.16)" cx="9.103" cy="1.161" r=".7"/><circle transform="rotate(-55.952 7.024 4.267)" cx="7.024" cy="4.267" r="1"/><circle transform="rotate(-55.965 4.86 7.322)" cx="4.86" cy="7.322" r="1.3"/><circle transform="rotate(-55.949 2.777 10.432)" cx="2.777" cy="10.432" r="1.6"/></g><g transform="translate(41 13)"><circle transform="rotate(-35.171 12.221 1.225)" cx="12.221" cy="1.225" r=".7"/><circle transform="rotate(-35.225 9.187 3.306)" cx="9.187" cy="3.306" r="1"/><circle transform="rotate(-35.238 6.211 5.475)" cx="6.211" cy="5.475" r="1.3"/><circle transform="rotate(-35.241 3.09 7.62)" cx="3.09" cy="7.621" r="1.6"/></g></g><path d="M169.4 36.3v9.9h-6.9v-9.3c0-.7-.1-1.2-.2-1.5-.2-.3-.5-.4-.9-.4-.8 0-1.2.6-1.2 1.9v9.3h-6.9v-9.3c0-.7-.1-1.2-.3-1.5-.1-.3-.4-.4-.9-.4-.8 0-1.1.6-1.1 1.9v9.3h-6.9V35c.1-1.7.8-3.2 2.1-4.4 1.4-1.4 3.1-2.1 5.1-2.1.4 0 .8 0 1.2.1 1.6.2 3 1 4.3 2.3 1.8-1.6 3.6-2.4 5.4-2.4 2.3 0 4.2.8 5.6 2.4 1.1 1.2 1.6 3 1.6 5.4zm32.9-5.1c-1.6-1.8-3.8-2.6-6.5-2.6-2.4 0-4.4.8-6 2.3-1.6 1.5-2.5 3.4-2.5 5.6V46h7.1v-9.6c0-1 .4-1.5 1.3-1.5s1.4.5 1.4 1.5V46h7.1v-9c0-2.5-.7-4.5-1.9-5.8zm40 8.3v6.6c-.4.1-4.2.1-6.7.1v-2.3c-.6.9-1.3 1.7-2.1 2.3h-.4c-2.7 0-4.9-.9-6.7-2.5-1.8-1.7-2.7-3.8-2.7-6.4 0-2.5.9-4.6 2.7-6.3 1.8-1.7 4-2.6 6.6-2.6 2.9 0 5.2.8 6.8 2.4 1.7 1.6 2.5 3.8 2.5 6.6v2.1zm-6.7-1.8v-.4c0-.6-.1-1.1-.3-1.5-.3-.8-.8-1.2-1.6-1.4-.3-.1-.6-.2-1-.2-1.6 0-2.9 1.3-2.9 2.8 0 1.4.9 2.5 2.2 2.8.2.1.5.1.8.1h2.7v-2.2h.1zm-48.3-.4c0 2.5-.9 4.5-2.6 6.3-1.8 1.7-3.8 2.6-6.3 2.6s-4.6-.9-6.3-2.6c-1.8-1.7-2.6-3.8-2.6-6.2 0-2.5.9-4.6 2.6-6.3 1.7-1.7 3.9-2.6 6.5-2.6 2.4 0 4.4.9 6.2 2.6 1.6 1.7 2.5 3.8 2.5 6.2zm-6.3 0c0-.8-.3-1.4-.8-1.9s-1.1-.8-1.9-.8c-.7 0-1.3.3-1.8.8s-.8 1.2-.8 1.9.3 1.4.8 1.9 1.1.8 1.8.8 1.4-.3 1.9-.8.8-1.1.8-1.9zm42.7-12.2v11.7c0 2.6-.7 4.7-2.2 6.4-.9 1-2 1.7-3.3 2.3-1.3.6-2.7.8-4.1.8-2.8 0-5.1-.9-7-2.6-1.8-1.7-2.8-3.7-2.8-6.1v-.4c0-2.3 1-4.4 2.8-6 1.9-1.7 4.1-2.6 6.8-2.6h2.9v-3.4h6.9v-.1zm-7 9.9v-.8h-2.9c-1.6 0-2.9 1.3-2.9 2.8 0 1.6 1.3 2.9 2.9 2.9.3 0 .7-.1 1-.2.8-.2 1.3-.7 1.6-1.4.2-.4.2-.9.3-1.5V35zm35.2-6.5v9.6c0 1-.4 1.5-1.3 1.5s-1.3-.5-1.3-1.5v-9.6h-7v9c0 2.5.6 4.4 1.9 5.8.4.5.9.9 1.3 1.2.5.3 1 .6 1.6.8 1 .4 2.2.6 3.4.6h.1c.5 0 .9 0 1.3-.1v.9c0 1-.4 1.5-1.3 1.5v6.4c1.3 0 2.4-.3 3.5-.7.8-.4 1.6-.9 2.3-1.5l.1-.1.1-.1.4-.4c1.2-1.4 1.8-3.1 1.8-5V28.5h-6.9z" fill="#BC2233"/><path d="M145.5 29.9c-1.4 1.4-2.2 3.1-2.3 5.1h-4.4c-1.3 0-1.9.9-1.9 2.7v8.5h-7v-9.7c0-2.5.7-4.4 2.2-5.9 1.3-1.3 2.9-2 4.9-2.2h10.7c-.8.3-1.5.8-2.2 1.5zM98.7 31c-1.6-1.8-3.7-2.6-6.4-2.6-.5 0-.9 0-1.3.1V25h-7v21.1h7v-10c0-.8.3-1.3 1-1.4h.8c.6.1.9.6.9 1.4v10h7v-9.4c-.1-2.4-.7-4.3-2-5.7zM46 37.3c0 2.5-1 4.6-2.9 6.3-1.9 1.7-4.3 2.6-7 2.6-1.4 0-2.8-.3-4.1-.8-1.3-.6-2.4-1.3-3.3-2.3-1.5-1.6-2.2-3.8-2.2-6.4V25h7v3.4h2.9c2.6 0 4.9.9 6.8 2.6 1.9 1.8 2.8 3.8 2.8 6.3zm-6.8-.3c0-1.6-1.3-2.9-2.8-2.9h-2.9v2.6c0 .6.1 1.1.3 1.5.3.8.8 1.3 1.6 1.4.3.1.6.2 1 .2 1.6 0 2.8-1.3 2.8-2.8zm14.9-8.6c-2.4 0-4.4.7-5.9 2.2-1.4 1.5-2.2 3.4-2.2 5.9v9.7h7v-8.4c0-1.8.6-2.7 1.9-2.7h2.6v11.1h7V28.4H54.1zm7-.8c.4 0 .8-.1 1.2-.2.9-.2 1.6-.8 1.9-1.7.2-.5.3-1.1.3-1.8v-3.2H61c-1.9 0-3.5 1.6-3.5 3.5.1 1.9 1.6 3.4 3.6 3.4zM84 47.2v.8c-.1.6-.2 1.2-.4 1.7-.3.9-.8 1.6-1.4 2.3-.1.1-.2.3-.4.4 0 0-.1.1-.2.1l-.1.1c-.7.6-1.5 1.1-2.3 1.5-1.1.5-2.2.7-3.5.7v-6.1c.9 0 1.3-.5 1.3-1.4v-3.5c-.6.9-1.4 1.7-2.3 2.3h-.4c-2.8 0-5.1-.9-7-2.5-1.9-1.7-2.8-3.8-2.8-6.4 0-2.5 1-4.6 2.8-6.3 1.9-1.7 4.2-2.6 6.9-2.6 3 0 5.4.8 7.1 2.4 1.8 1.6 2.6 3.8 2.6 6.6v8.9l.1 1zm-6.9-7.4v-2.6c0-.6-.1-1.1-.3-1.5-.3-.8-.8-1.2-1.6-1.4-.3-.1-.6-.2-1-.2-1.6 0-2.9 1.3-2.9 2.9 0 1.6 1.3 2.8 2.9 2.8h2.9zm-12.6-2.5c0-.3 0-.6.1-.9v1.8c-.1-.3-.1-.6-.1-.9zm65.4 0v.8h-11.5c.4 1 1.3 1.8 2.5 1.8.3 0 1-.1 1.6-.6l.3.1 5.8 2.4c-1.3 2.2-3.6 3.8-6.2 4.2-.2 0-.3.1-.5.1h-1c-1.4 0-2.8-.3-4-.9l-.6-.3c-.1.1-.3.2-.5.2-1.4.7-2.9 1-4.5 1h-1.1c-1.6 0-3.1-.3-4.5-1s-2.5-1.6-3.4-2.7c-.8-1-1.2-2.3-1.5-3.8-.1-.3-.1-.7-.1-1V25h7v3.2h3.1V35h-3.2v1.1c0 .9.1 1.5.3 2 0 .1.1.2.1.2s0 .1.1.1l.3.3c.4.5 1.2.7 2.3.8.5 0 .8 0 1.2-.1h.2c-.2-.7-.2-1.4-.2-2.1v-1s.2-1.5.6-2.3c1.3-3.4 4.6-5.7 8.4-5.7.4 0 .7 0 1.1.1h.3c.1 0 .3 0 .4.1.6.1 1.2.3 1.7.6h.1c2.9 1.3 5 4 5.3 7.3 0 .2.1.5.1.9zm-6.1-1.8c-.2-.4-.6-2-2.8-2-2 0-2.6 1.6-2.7 2h5.5z" fill="#F69320"/><path d="M202.4 48.6h2.5v4.6l4.2-4.6h3.1l-4.4 4.9c.4.5 1.1 1.5 2.1 3s1.8 2.5 2.3 3.3h-2.9l-3.3-4.4-1.1 1.2v3.2h-2.5V48.6zm17.8 9.9c-1 .9-2.1 1.4-3.4 1.4-1.3 0-2.4-.4-3.2-1.2-.9-.8-1.3-1.9-1.3-3.2 0-1.4.4-2.4 1.3-3.2.9-.8 1.9-1.2 3.1-1.2 1.2 0 2.2.4 3 1.1.8.7 1.2 1.7 1.2 2.9v1.3h-6.3c.1.5.3.9.7 1.2.4.3.9.4 1.4.4.8 0 1.5-.3 2.1-.8l1.4 1.3zm-2.3-5.1c-.3-.3-.7-.4-1.2-.4s-.9.1-1.3.4c-.4.3-.6.7-.7 1.2h3.8c-.1-.5-.3-.9-.6-1.2zm6.3 1.6v4.8h-2.4v-8.6h2.4v1c.7-.7 1.5-1.1 2.4-1.1.9 0 1.7.3 2.3 1 .6.7.9 1.5.9 2.6v5.2h-2.4V55c0-1.3-.5-2-1.5-2-.5 0-.9.2-1.3.5s-.4.8-.4 1.5zm8.4 8.2c-.8 0-1.6-.3-2.4-1l1.1-1.8c.4.4.8.6 1.2.6.2 0 .4-.1.6-.3.2-.2.2-.5.2-.7 0-.2-1.1-3.2-3.3-8.8h2.6l2.1 5.4 2.1-5.4h2.6l-4 10.1c-.2.6-.6 1-1.1 1.4-.6.3-1.1.5-1.7.5zm14.3-3.4h-2.3v-1c-.6.8-1.4 1.2-2.3 1.2-.9 0-1.7-.3-2.3-.8-.6-.5-.9-1.2-.9-2.1 0-.9.3-1.5 1-2 .6-.4 1.5-.7 2.6-.7h1.8c0-.9-.5-1.4-1.5-1.4-.4 0-.9.1-1.3.2-.5.2-.9.4-1.2.6l-1.1-1.6c1.1-.8 2.4-1.2 3.9-1.2 1 0 1.9.3 2.6.8.7.5 1 1.3 1 2.5v5.5zm-2.4-3.3v-.4H243c-1 0-1.4.3-1.4.9 0 .3.1.5.3.7.2.2.6.2 1 .2s.8-.1 1.1-.4c.3-.2.5-.6.5-1z" fill="#323E44"/></g></svg>